<?xml version="1.0" encoding="UTF-8"?>
<svg id="Layer_1" data-name="Layer 1" xmlns="http://www.w3.org/2000/svg" viewBox="0 0 1366 768">
  <defs>
    <style>
      .cls-1, .cls-2 {
        fill: none;
      }

      .cls-1, .cls-2, .cls-3 {
        stroke: #000;
        stroke-miterlimit: 10;
      }

      .cls-1, .cls-3 {
        stroke-width: 4px;
      }

      .cls-4 {
        font-size: 31px;
      }

      .cls-4, .cls-5 {
        font-family: Verdana-Bold, Verdana;
        font-weight: 700;
      }

      .cls-6, .cls-7 {
        stroke-width: 0px;
      }

      .cls-5 {
        font-size: 28px;
      }

      .cls-2 {
        stroke-width: 3px;
      }

      .cls-7, .cls-3 {
        fill: #fff;
      }
    </style>
  </defs>
  <polygon class="cls-3" points="354.39 279.5 497 166.08 804.86 166.08 952.86 277.5 952.9 327.73 952.96 386.89 953 434 812 547 497 547 354.39 435.73 354.39 385.52 354.39 279.5"/>
  <path class="cls-2" d="m628,242h41.8s-20.8-47.89-41.8-23.94l-14,8.94c1.19.17,2.93.47,5,1,3.74.96,5.64,1.48,7,3,1.32,1.48,1.65,3.2,2,5,.49,2.53.25,4.66,0,6Z"/>
  <circle class="cls-6" cx="638" cy="223" r="3"/>
  <path class="cls-2" d="m678,302l43-36-29-20s40.84-30.65,63.42-19.32l138.5,75.32h-22.62l-101.29-56s-11,0-5,8l90.7,48h-20.79l-77.91-45s-11.78-5.83-7.39,6.08l70.01,38.92h-18.96l-56.67-34s-8-4-7,5l48.96,29h-12.81l-42.15-23s-11-3-7,5l31.42,18h-16.51l-23.91-13s-9-2-5,5l13.62,8h-16.2l-7.42-6-8.1,6h-14.9"/>
  <path class="cls-2" d="m626,302l-43-36,29-20s-40.84-30.65-63.42-19.32l-138.5,75.32h22.62s101.29-56,101.29-56c0,0,11,0,5,8l-90.7,48h20.79s77.91-45,77.91-45c0,0,11.78-5.83,7.39,6.08l-70.01,38.92h18.96s56.67-34,56.67-34c0,0,8-4,7,5l-48.96,29h12.81s42.15-23,42.15-23c0,0,11-3,7,5l-31.42,18h16.51s23.91-13,23.91-13c0,0,9-2,5,5l-13.62,8h16.2l7.42-6,8.1,6h14.9"/>
  <path class="cls-6" d="m598,268l26-18h57.82l23.16,18-53.49,45.85-53.49-45.85Z"/>
  <path class="cls-7" d="m620,255v27c1.67,1.67,3.33,3.33,5,5v-26c3.33,10.67,6.67,21.33,10,32,2,2.33,4,4.67,6,7v-45h-7.34v22.5l-7.22-22.5h-6.44Z"/>
  <path class="cls-7" d="m645,255v49h11.02c1.28,0,3.06-.19,4.98-1,2.86-1.21,4.3-3.08,4.63-3.53.59-.8.75-1.28.82-1.61.24-1.08.11-3.05-1.45-3.86-1.28-.67-2.99-.28-4,1-1.59,2.28-2.98,2.89-4,3-.36.04-.63,0-3,0-.84,0-1.54,0-2,0v-15h11v-7h-11v-13h11c.04-2.67.08-5.33.13-8h-18.13Z"/>
  <path class="cls-7" d="m684,264c-.59-5.2-4.41-9.04-8.63-9.32-2.67-.18-5.53,1.05-7.37,3.32-2,2.47-2.02,5.23-2,6v27c.68,1.14,1.47,1.71,2,2,2.47,1.36,6.1.48,9.06-2.24,1.32-.91,3.52-2.73,4.94-5.76.39-.83.75-2.17,1-3,.54-1.79.83-2.75,1-4,.12-.93.22-2.3,0-4h-5c.03.41.06,1.13,0,2-.27,3.69-2,7-2,7h0s-1.28,1.83-3,3c-.44.3-1.1.68-2,1v-25s4-6,7,0l1,2h4Z"/>
  <path class="cls-1" d="m529,491l243,1,105-81s14-8-5-7l-441.2-.09s-17.8-2.91-2.8,7.09,101,80,101,80Z"/>
  <polyline class="cls-1" points="497 423 542.54 423 542.54 467.78 587.79 467.78 587.79 423 631.2 423 632.73 467.78 678 468 678 423 721.7 423 721.7 468 766.95 468 766.95 423 804.86 423"/>
  <polyline class="cls-1" points="354.39 327.04 952.9 327.73 952.96 386.89 354.39 385.52"/>
  <text class="cls-4" transform="translate(362.03 368.78)"><tspan x="0" y="0">NANDHA ENGINEERING COLLEGE</tspan></text>
  <text class="cls-5" transform="translate(396.31 438.38) rotate(39.32)"><tspan x="0" y="0">LEARN</tspan></text>
  <text class="cls-5" transform="translate(601.35 525.74) rotate(1.1)"><tspan x="0" y="0">SERVE</tspan></text>
  <text class="cls-5" transform="translate(805.91 514.11) rotate(-38.75)"><tspan x="0" y="0">SUCCEED</tspan></text>
</svg>